<svg width="118" height="122" viewBox="0 0 118 122" fill="none" xmlns="http://www.w3.org/2000/svg">
<ellipse cx="59" cy="61" rx="59" ry="61" fill="#BDFF00"/>
<path d="M55.728 84.896C53.168 84.896 50.7147 84.6827 48.368 84.256C46.0213 83.872 43.888 83.3173 41.968 82.592C40.048 81.824 38.4053 80.992 37.04 80.096L42.032 70.624C43.568 71.5627 45.1467 72.3733 46.768 73.056C48.432 73.696 50.1173 74.1867 51.824 74.528C53.5307 74.8693 55.2373 75.04 56.944 75.04C58.5653 75.04 59.952 74.8907 61.104 74.592C62.256 74.2507 63.1307 73.7813 63.728 73.184C64.3253 72.5867 64.624 71.8827 64.624 71.072C64.624 70.176 64.2187 69.472 63.408 68.96C62.64 68.4053 61.616 67.936 60.336 67.552C59.056 67.168 57.6267 66.784 56.048 66.4C54.512 65.9733 52.9547 65.4827 51.376 64.928C49.84 64.3307 48.432 63.6053 47.152 62.752C45.872 61.856 44.8267 60.7253 44.016 59.36C43.248 57.9947 42.864 56.3093 42.864 54.304C42.864 51.0613 43.7387 48.2453 45.488 45.856C47.2373 43.4667 49.712 41.6107 52.912 40.288C56.1547 38.9653 59.9733 38.304 64.368 38.304C67.568 38.304 70.5547 38.6453 73.328 39.328C76.1013 39.968 78.4907 40.9067 80.496 42.144L75.888 51.552C74.1387 50.4427 72.1973 49.6107 70.064 49.056C67.9733 48.4587 65.8187 48.16 63.6 48.16C61.8933 48.16 60.4213 48.352 59.184 48.736C57.9893 49.12 57.072 49.6533 56.432 50.336C55.8347 50.976 55.536 51.7013 55.536 52.512C55.536 53.3653 55.92 54.0693 56.688 54.624C57.456 55.1787 58.48 55.648 59.76 56.032C61.0827 56.416 62.512 56.8213 64.048 57.248C65.6267 57.632 67.184 58.1013 68.72 58.656C70.256 59.168 71.6853 59.872 73.008 60.768C74.3307 61.6213 75.376 62.7093 76.144 64.032C76.912 65.3547 77.296 66.9973 77.296 68.96C77.296 72.16 76.4213 74.9547 74.672 77.344C72.9227 79.7333 70.4267 81.5893 67.184 82.912C63.9413 84.2347 60.1227 84.896 55.728 84.896Z" fill="black"/>
</svg>
